<?xml version="1.0" encoding="utf-8"?>
<!-- Generator: Adobe Illustrator 25.2.3, SVG Export Plug-In . SVG Version: 6.00 Build 0)  -->
<svg version="1.1" id="Layer_1" xmlns="http://www.w3.org/2000/svg" xmlns:xlink="http://www.w3.org/1999/xlink" x="0px" y="0px"
	 viewBox="0 0 512 512" style="enable-background:new 0 0 512 512;" xml:space="preserve">
<style type="text/css">
	.st0{fill:url(#SVGID_1_);}
	.st1{fill:url(#SVGID_2_);}
	.st2{fill:url(#SVGID_3_);}
	.st3{fill:url(#SVGID_4_);}
	.st4{fill:url(#SVGID_5_);}
	.st5{fill:url(#SVGID_6_);}
	.st6{fill:url(#SVGID_7_);}
	.st7{fill:url(#SVGID_8_);}
	.st8{fill:url(#SVGID_9_);}
	.st9{fill:url(#SVGID_10_);}
	.st10{fill:url(#SVGID_11_);}
	.st11{fill:url(#SVGID_12_);}
	.st12{fill:url(#SVGID_13_);}
	.st13{fill:url(#SVGID_14_);}
	.st14{fill:url(#SVGID_15_);}
	.st15{fill:url(#SVGID_16_);}
	.st16{fill:url(#SVGID_17_);}
	.st17{fill:url(#SVGID_18_);}
	.st18{fill:url(#SVGID_19_);}
	.st19{fill:url(#SVGID_20_);}
	.st20{fill:url(#SVGID_21_);}
</style>
<linearGradient id="SVGID_1_" gradientUnits="userSpaceOnUse" x1="-308.686" y1="-310.4691" x2="87.314" y2="279.9308">
	<stop  offset="0" style="stop-color:#00AEFF"/>
	<stop  offset="0.1858" style="stop-color:#02ABFD"/>
	<stop  offset="0.3385" style="stop-color:#09A1F8"/>
	<stop  offset="0.4795" style="stop-color:#148FEE"/>
	<stop  offset="0.6133" style="stop-color:#2477E1"/>
	<stop  offset="0.7422" style="stop-color:#3958D0"/>
	<stop  offset="0.8674" style="stop-color:#5232BA"/>
	<stop  offset="0.9874" style="stop-color:#7005A2"/>
	<stop  offset="1" style="stop-color:#73009F"/>
</linearGradient>
<path class="st0" d="M142.6,396.9l7.5-13l49.1,28.3l-7.5,13L142.6,396.9z"/>
<linearGradient id="SVGID_2_" gradientUnits="userSpaceOnUse" x1="-171.4056" y1="-402.5475" x2="224.5944" y2="187.8525">
	<stop  offset="0" style="stop-color:#00AEFF"/>
	<stop  offset="0.1858" style="stop-color:#02ABFD"/>
	<stop  offset="0.3385" style="stop-color:#09A1F8"/>
	<stop  offset="0.4795" style="stop-color:#148FEE"/>
	<stop  offset="0.6133" style="stop-color:#2477E1"/>
	<stop  offset="0.7422" style="stop-color:#3958D0"/>
	<stop  offset="0.8674" style="stop-color:#5232BA"/>
	<stop  offset="0.9874" style="stop-color:#7005A2"/>
	<stop  offset="1" style="stop-color:#73009F"/>
</linearGradient>
<path class="st1" d="M142.5,115.3L191.6,87l7.5,13L150,128.3L142.5,115.3z"/>
<linearGradient id="SVGID_3_" gradientUnits="userSpaceOnUse" x1="-53.2349" y1="-481.8083" x2="342.7651" y2="108.5917">
	<stop  offset="0" style="stop-color:#00AEFF"/>
	<stop  offset="0.1858" style="stop-color:#02ABFD"/>
	<stop  offset="0.3385" style="stop-color:#09A1F8"/>
	<stop  offset="0.4795" style="stop-color:#148FEE"/>
	<stop  offset="0.6133" style="stop-color:#2477E1"/>
	<stop  offset="0.7422" style="stop-color:#3958D0"/>
	<stop  offset="0.8674" style="stop-color:#5232BA"/>
	<stop  offset="0.9874" style="stop-color:#7005A2"/>
	<stop  offset="1" style="stop-color:#73009F"/>
</linearGradient>
<path class="st2" d="M313.8,99.9l7.5-13l49.1,28.4l-7.5,13L313.8,99.9z"/>
<linearGradient id="SVGID_4_" gradientUnits="userSpaceOnUse" x1="-62.7785" y1="-475.4071" x2="333.2215" y2="114.9929">
	<stop  offset="0" style="stop-color:#00AEFF"/>
	<stop  offset="0.1858" style="stop-color:#02ABFD"/>
	<stop  offset="0.3385" style="stop-color:#09A1F8"/>
	<stop  offset="0.4795" style="stop-color:#148FEE"/>
	<stop  offset="0.6133" style="stop-color:#2477E1"/>
	<stop  offset="0.7422" style="stop-color:#3958D0"/>
	<stop  offset="0.8674" style="stop-color:#5232BA"/>
	<stop  offset="0.9874" style="stop-color:#7005A2"/>
	<stop  offset="1" style="stop-color:#73009F"/>
</linearGradient>
<path class="st3" d="M420.4,227.6h15v57.1h-15V227.6z"/>
<linearGradient id="SVGID_5_" gradientUnits="userSpaceOnUse" x1="-272.4766" y1="-334.756" x2="123.5234" y2="255.644">
	<stop  offset="0" style="stop-color:#00AEFF"/>
	<stop  offset="0.1858" style="stop-color:#02ABFD"/>
	<stop  offset="0.3385" style="stop-color:#09A1F8"/>
	<stop  offset="0.4795" style="stop-color:#148FEE"/>
	<stop  offset="0.6133" style="stop-color:#2477E1"/>
	<stop  offset="0.7422" style="stop-color:#3958D0"/>
	<stop  offset="0.8674" style="stop-color:#5232BA"/>
	<stop  offset="0.9874" style="stop-color:#7005A2"/>
	<stop  offset="1" style="stop-color:#73009F"/>
</linearGradient>
<path class="st4" d="M256.5,395.8c-32,0-58.1,26.1-58.1,58.1s26.1,58.1,58.1,58.1s58.1-26.1,58.1-58.1S288.5,395.8,256.5,395.8z
	 M256.5,497c-23.8,0-43.1-19.3-43.1-43.1c0-23.8,19.3-43.1,43.1-43.1s43.1,19.3,43.1,43.1S280.2,497,256.5,497z"/>
<linearGradient id="SVGID_6_" gradientUnits="userSpaceOnUse" x1="-89.3749" y1="-457.5681" x2="306.6251" y2="132.832">
	<stop  offset="0" style="stop-color:#00AEFF"/>
	<stop  offset="0.1858" style="stop-color:#02ABFD"/>
	<stop  offset="0.3385" style="stop-color:#09A1F8"/>
	<stop  offset="0.4795" style="stop-color:#148FEE"/>
	<stop  offset="0.6133" style="stop-color:#2477E1"/>
	<stop  offset="0.7422" style="stop-color:#3958D0"/>
	<stop  offset="0.8674" style="stop-color:#5232BA"/>
	<stop  offset="0.9874" style="stop-color:#7005A2"/>
	<stop  offset="1" style="stop-color:#73009F"/>
</linearGradient>
<path class="st5" d="M256.5,116.2c32,0,58.1-26.1,58.1-58.1S288.5,0,256.5,0s-58.1,26.1-58.1,58.1S224.5,116.2,256.5,116.2z
	 M256.5,15c23.8,0,43.1,19.3,43.1,43.1s-19.3,43.1-43.1,43.1s-43.1-19.3-43.1-43.1S232.7,15,256.5,15z"/>
<linearGradient id="SVGID_7_" gradientUnits="userSpaceOnUse" x1="-180.933" y1="-396.1572" x2="215.067" y2="194.2428">
	<stop  offset="0" style="stop-color:#00AEFF"/>
	<stop  offset="0.1858" style="stop-color:#02ABFD"/>
	<stop  offset="0.3385" style="stop-color:#09A1F8"/>
	<stop  offset="0.4795" style="stop-color:#148FEE"/>
	<stop  offset="0.6133" style="stop-color:#2477E1"/>
	<stop  offset="0.7422" style="stop-color:#3958D0"/>
	<stop  offset="0.8674" style="stop-color:#5232BA"/>
	<stop  offset="0.9874" style="stop-color:#7005A2"/>
	<stop  offset="1" style="stop-color:#73009F"/>
</linearGradient>
<path class="st6" d="M256.5,314.1c32,0,58.1-26.1,58.1-58.1s-26.1-58-58.1-58s-58.1,26-58.1,58S224.5,314.1,256.5,314.1z M256.5,213
	c23.8,0,43.1,19.3,43.1,43.1s-19.3,43.1-43.1,43.1s-43.1-19.3-43.1-43.1S232.7,213,256.5,213z"/>
<linearGradient id="SVGID_8_" gradientUnits="userSpaceOnUse" x1="-16.8181" y1="-506.2342" x2="379.1819" y2="84.1658">
	<stop  offset="0" style="stop-color:#00AEFF"/>
	<stop  offset="0.1858" style="stop-color:#02ABFD"/>
	<stop  offset="0.3385" style="stop-color:#09A1F8"/>
	<stop  offset="0.4795" style="stop-color:#148FEE"/>
	<stop  offset="0.6133" style="stop-color:#2477E1"/>
	<stop  offset="0.7422" style="stop-color:#3958D0"/>
	<stop  offset="0.8674" style="stop-color:#5232BA"/>
	<stop  offset="0.9874" style="stop-color:#7005A2"/>
	<stop  offset="1" style="stop-color:#73009F"/>
</linearGradient>
<path class="st7" d="M427.9,214.9c32,0,58.1-26.1,58.1-58.1s-26.1-58.1-58.1-58.1s-58.1,26.1-58.1,58.1S395.9,214.9,427.9,214.9z
	 M427.9,113.7c23.8,0,43.1,19.3,43.1,43.1s-19.3,43.1-43.1,43.1c-23.8,0-43.1-19.3-43.1-43.1S404.1,113.7,427.9,113.7z"/>
<linearGradient id="SVGID_9_" gradientUnits="userSpaceOnUse" x1="-108.5539" y1="-444.7041" x2="287.446" y2="145.6959">
	<stop  offset="0" style="stop-color:#00AEFF"/>
	<stop  offset="0.1858" style="stop-color:#02ABFD"/>
	<stop  offset="0.3385" style="stop-color:#09A1F8"/>
	<stop  offset="0.4795" style="stop-color:#148FEE"/>
	<stop  offset="0.6133" style="stop-color:#2477E1"/>
	<stop  offset="0.7422" style="stop-color:#3958D0"/>
	<stop  offset="0.8674" style="stop-color:#5232BA"/>
	<stop  offset="0.9874" style="stop-color:#7005A2"/>
	<stop  offset="1" style="stop-color:#73009F"/>
</linearGradient>
<path class="st8" d="M427.9,297c-32,0-58.1,26.1-58.1,58.1s26.1,58.1,58.1,58.1s58.1-26.1,58.1-58.1S459.9,297,427.9,297z
	 M427.9,398.1c-23.8,0-43.1-19.3-43.1-43.1c0-23.8,19.3-43.1,43.1-43.1c23.8,0,43.1,19.3,43.1,43.1
	C471,378.8,451.6,398.1,427.9,398.1z"/>
<linearGradient id="SVGID_10_" gradientUnits="userSpaceOnUse" x1="-253.2513" y1="-347.651" x2="142.7487" y2="242.749">
	<stop  offset="0" style="stop-color:#00AEFF"/>
	<stop  offset="0.1858" style="stop-color:#02ABFD"/>
	<stop  offset="0.3385" style="stop-color:#09A1F8"/>
	<stop  offset="0.4795" style="stop-color:#148FEE"/>
	<stop  offset="0.6133" style="stop-color:#2477E1"/>
	<stop  offset="0.7422" style="stop-color:#3958D0"/>
	<stop  offset="0.8674" style="stop-color:#5232BA"/>
	<stop  offset="0.9874" style="stop-color:#7005A2"/>
	<stop  offset="1" style="stop-color:#73009F"/>
</linearGradient>
<path class="st9" d="M85.1,214.9c32,0,58.1-26.1,58.1-58.1s-26.1-58.1-58.1-58.1S27,124.8,27,156.8S53.1,214.9,85.1,214.9z
	 M85.1,113.7c23.8,0,43.1,19.3,43.1,43.1s-19.3,43.1-43.1,43.1S42,180.6,42,156.8S61.3,113.7,85.1,113.7z"/>
<linearGradient id="SVGID_11_" gradientUnits="userSpaceOnUse" x1="-344.9973" y1="-286.114" x2="51.0027" y2="304.286">
	<stop  offset="0" style="stop-color:#00AEFF"/>
	<stop  offset="0.1858" style="stop-color:#02ABFD"/>
	<stop  offset="0.3385" style="stop-color:#09A1F8"/>
	<stop  offset="0.4795" style="stop-color:#148FEE"/>
	<stop  offset="0.6133" style="stop-color:#2477E1"/>
	<stop  offset="0.7422" style="stop-color:#3958D0"/>
	<stop  offset="0.8674" style="stop-color:#5232BA"/>
	<stop  offset="0.9874" style="stop-color:#7005A2"/>
	<stop  offset="1" style="stop-color:#73009F"/>
</linearGradient>
<path class="st10" d="M85.1,297c-32,0-58.1,26-58.1,58.1s26.1,58.1,58.1,58.1s58.1-26.1,58.1-58.1S117.1,297,85.1,297z M85.1,398.1
	C61.3,398.1,42,378.8,42,355s19.3-43.1,43.1-43.1s43.1,19.3,43.1,43.1C128.2,378.8,108.8,398.1,85.1,398.1z"/>
<linearGradient id="SVGID_12_" gradientUnits="userSpaceOnUse" x1="-135.1966" y1="-426.834" x2="260.8034" y2="163.566">
	<stop  offset="0" style="stop-color:#00AEFF"/>
	<stop  offset="0.1858" style="stop-color:#02ABFD"/>
	<stop  offset="0.3385" style="stop-color:#09A1F8"/>
	<stop  offset="0.4795" style="stop-color:#148FEE"/>
	<stop  offset="0.6133" style="stop-color:#2477E1"/>
	<stop  offset="0.7422" style="stop-color:#3958D0"/>
	<stop  offset="0.8674" style="stop-color:#5232BA"/>
	<stop  offset="0.9874" style="stop-color:#7005A2"/>
	<stop  offset="1" style="stop-color:#73009F"/>
</linearGradient>
<path class="st11" d="M249,128.8h15v56.7h-15V128.8z"/>
<linearGradient id="SVGID_13_" gradientUnits="userSpaceOnUse" x1="-263.0717" y1="-341.0641" x2="132.9283" y2="249.3359">
	<stop  offset="0" style="stop-color:#00AEFF"/>
	<stop  offset="0.1858" style="stop-color:#02ABFD"/>
	<stop  offset="0.3385" style="stop-color:#09A1F8"/>
	<stop  offset="0.4795" style="stop-color:#148FEE"/>
	<stop  offset="0.6133" style="stop-color:#2477E1"/>
	<stop  offset="0.7422" style="stop-color:#3958D0"/>
	<stop  offset="0.8674" style="stop-color:#5232BA"/>
	<stop  offset="0.9874" style="stop-color:#7005A2"/>
	<stop  offset="1" style="stop-color:#73009F"/>
</linearGradient>
<path class="st12" d="M142.3,313.4l49.3-28.5l7.5,13l-49.3,28.5L142.3,313.4z"/>
<linearGradient id="SVGID_14_" gradientUnits="userSpaceOnUse" x1="-144.7399" y1="-420.433" x2="251.2601" y2="169.967">
	<stop  offset="0" style="stop-color:#00AEFF"/>
	<stop  offset="0.1858" style="stop-color:#02ABFD"/>
	<stop  offset="0.3385" style="stop-color:#09A1F8"/>
	<stop  offset="0.4795" style="stop-color:#148FEE"/>
	<stop  offset="0.6133" style="stop-color:#2477E1"/>
	<stop  offset="0.7422" style="stop-color:#3958D0"/>
	<stop  offset="0.8674" style="stop-color:#5232BA"/>
	<stop  offset="0.9874" style="stop-color:#7005A2"/>
	<stop  offset="1" style="stop-color:#73009F"/>
</linearGradient>
<path class="st13" d="M313.8,297.8l7.5-13l49.3,28.5l-7.5,13L313.8,297.8z"/>
<linearGradient id="SVGID_15_" gradientUnits="userSpaceOnUse" x1="-261.6086" y1="-342.0455" x2="134.3914" y2="248.3545">
	<stop  offset="0" style="stop-color:#00AEFF"/>
	<stop  offset="0.1858" style="stop-color:#02ABFD"/>
	<stop  offset="0.3385" style="stop-color:#09A1F8"/>
	<stop  offset="0.4795" style="stop-color:#148FEE"/>
	<stop  offset="0.6133" style="stop-color:#2477E1"/>
	<stop  offset="0.7422" style="stop-color:#3958D0"/>
	<stop  offset="0.8674" style="stop-color:#5232BA"/>
	<stop  offset="0.9874" style="stop-color:#7005A2"/>
	<stop  offset="1" style="stop-color:#73009F"/>
</linearGradient>
<path class="st14" d="M279.9,477.3l-10.6-10.6c3.4-3.4,5.3-7.9,5.3-12.8c0-2.5-0.5-4.8-1.4-7.1l13.8-5.9c1.7,4.1,2.6,8.5,2.6,12.9
	C289.6,462.8,286.1,471.1,279.9,477.3z M243.7,441.1l-10.6-10.6c4.6-4.6,10.5-7.8,16.9-9l2.9,14.7
	C249.4,436.9,246.2,438.6,243.7,441.1z M269.2,441c-2.5-2.5-5.7-4.2-9.2-4.9l2.8-14.7c6.4,1.2,12.3,4.3,16.9,8.9L269.2,441z"/>
<linearGradient id="SVGID_16_" gradientUnits="userSpaceOnUse" x1="-78.5069" y1="-464.8575" x2="317.4931" y2="125.5424">
	<stop  offset="0" style="stop-color:#00AEFF"/>
	<stop  offset="0.1858" style="stop-color:#02ABFD"/>
	<stop  offset="0.3385" style="stop-color:#09A1F8"/>
	<stop  offset="0.4795" style="stop-color:#148FEE"/>
	<stop  offset="0.6133" style="stop-color:#2477E1"/>
	<stop  offset="0.7422" style="stop-color:#3958D0"/>
	<stop  offset="0.8674" style="stop-color:#5232BA"/>
	<stop  offset="0.9874" style="stop-color:#7005A2"/>
	<stop  offset="1" style="stop-color:#73009F"/>
</linearGradient>
<path class="st15" d="M279.9,81.5l-10.6-10.6c3.4-3.4,5.3-7.9,5.3-12.8c0-2.5-0.5-4.8-1.4-7.1l13.8-5.9c1.7,4.1,2.6,8.5,2.6,12.9
	C289.6,66.9,286.1,75.2,279.9,81.5z M243.7,45.3l-10.6-10.6c4.6-4.6,10.5-7.8,16.9-9l2.9,14.7C249.4,41.1,246.2,42.8,243.7,45.3z
	 M269.2,45.2c-2.5-2.5-5.7-4.2-9.2-4.9l2.8-14.7c6.4,1.2,12.3,4.3,16.9,8.9L269.2,45.2z"/>
<linearGradient id="SVGID_17_" gradientUnits="userSpaceOnUse" x1="-170.0809" y1="-403.436" x2="225.9191" y2="186.964">
	<stop  offset="0" style="stop-color:#00AEFF"/>
	<stop  offset="0.1858" style="stop-color:#02ABFD"/>
	<stop  offset="0.3385" style="stop-color:#09A1F8"/>
	<stop  offset="0.4795" style="stop-color:#148FEE"/>
	<stop  offset="0.6133" style="stop-color:#2477E1"/>
	<stop  offset="0.7422" style="stop-color:#3958D0"/>
	<stop  offset="0.8674" style="stop-color:#5232BA"/>
	<stop  offset="0.9874" style="stop-color:#7005A2"/>
	<stop  offset="1" style="stop-color:#73009F"/>
</linearGradient>
<path class="st16" d="M279.9,279.4l-10.6-10.6c3.4-3.4,5.3-7.9,5.3-12.8c0-2.5-0.5-4.8-1.4-7.1L287,243c1.7,4.1,2.6,8.5,2.6,12.9
	C289.6,264.9,286.1,273.2,279.9,279.4z M243.7,243.3l-10.6-10.6c4.6-4.6,10.5-7.8,16.9-9l2.9,14.7
	C249.4,239,246.2,240.7,243.7,243.3z M269.2,243.2c-2.5-2.5-5.7-4.2-9.2-4.9l2.8-14.7c6.4,1.2,12.3,4.3,16.9,8.9L269.2,243.2z"/>
<linearGradient id="SVGID_18_" gradientUnits="userSpaceOnUse" x1="-5.9732" y1="-513.5082" x2="390.0268" y2="76.8918">
	<stop  offset="0" style="stop-color:#00AEFF"/>
	<stop  offset="0.1858" style="stop-color:#02ABFD"/>
	<stop  offset="0.3385" style="stop-color:#09A1F8"/>
	<stop  offset="0.4795" style="stop-color:#148FEE"/>
	<stop  offset="0.6133" style="stop-color:#2477E1"/>
	<stop  offset="0.7422" style="stop-color:#3958D0"/>
	<stop  offset="0.8674" style="stop-color:#5232BA"/>
	<stop  offset="0.9874" style="stop-color:#7005A2"/>
	<stop  offset="1" style="stop-color:#73009F"/>
</linearGradient>
<path class="st17" d="M451.3,180.2l-10.6-10.6c3.4-3.4,5.3-7.9,5.3-12.8c0-2.5-0.5-4.8-1.4-7.1l13.8-5.8c1.7,4.1,2.6,8.5,2.6,12.9
	C461,165.6,457.5,173.9,451.3,180.2z M415.1,144l-10.6-10.6c4.6-4.6,10.5-7.8,16.9-9l2.9,14.7C420.8,139.8,417.6,141.5,415.1,144z
	 M440.6,143.9c-2.5-2.5-5.7-4.2-9.2-4.9l2.8-14.7c6.4,1.2,12.3,4.3,16.9,8.9L440.6,143.9z"/>
<linearGradient id="SVGID_19_" gradientUnits="userSpaceOnUse" x1="-97.6859" y1="-451.9936" x2="298.3141" y2="138.4064">
	<stop  offset="0" style="stop-color:#00AEFF"/>
	<stop  offset="0.1858" style="stop-color:#02ABFD"/>
	<stop  offset="0.3385" style="stop-color:#09A1F8"/>
	<stop  offset="0.4795" style="stop-color:#148FEE"/>
	<stop  offset="0.6133" style="stop-color:#2477E1"/>
	<stop  offset="0.7422" style="stop-color:#3958D0"/>
	<stop  offset="0.8674" style="stop-color:#5232BA"/>
	<stop  offset="0.9874" style="stop-color:#7005A2"/>
	<stop  offset="1" style="stop-color:#73009F"/>
</linearGradient>
<path class="st18" d="M451.3,378.5l-10.6-10.6c3.4-3.4,5.3-7.9,5.3-12.8c0-2.5-0.5-4.8-1.4-7.1l13.8-5.9c1.7,4.1,2.6,8.5,2.6,12.9
	C461,363.9,457.5,372.2,451.3,378.5z M415.1,342.3l-10.6-10.6c4.6-4.6,10.5-7.8,16.9-9l2.9,14.7C420.8,338,417.6,339.7,415.1,342.3z
	 M440.6,342.2c-2.5-2.5-5.7-4.2-9.2-4.9l2.8-14.7c6.4,1.2,12.3,4.3,16.9,8.9L440.6,342.2z"/>
<linearGradient id="SVGID_20_" gradientUnits="userSpaceOnUse" x1="-242.4064" y1="-354.925" x2="153.5936" y2="235.475">
	<stop  offset="0" style="stop-color:#00AEFF"/>
	<stop  offset="0.1858" style="stop-color:#02ABFD"/>
	<stop  offset="0.3385" style="stop-color:#09A1F8"/>
	<stop  offset="0.4795" style="stop-color:#148FEE"/>
	<stop  offset="0.6133" style="stop-color:#2477E1"/>
	<stop  offset="0.7422" style="stop-color:#3958D0"/>
	<stop  offset="0.8674" style="stop-color:#5232BA"/>
	<stop  offset="0.9874" style="stop-color:#7005A2"/>
	<stop  offset="1" style="stop-color:#73009F"/>
</linearGradient>
<path class="st19" d="M108.5,180.2l-10.6-10.6c3.4-3.4,5.3-7.9,5.3-12.8c0-2.5-0.5-4.8-1.4-7.1l13.8-5.8c1.7,4.1,2.6,8.5,2.6,12.9
	C118.2,165.6,114.7,173.9,108.5,180.2z M72.3,144l-10.6-10.6c4.6-4.6,10.5-7.8,16.9-9l2.9,14.7C78,139.8,74.8,141.5,72.3,144z
	 M97.8,143.9c-2.5-2.5-5.7-4.2-9.2-4.9l2.8-14.7c6.4,1.2,12.3,4.3,16.9,8.9L97.8,143.9z"/>
<linearGradient id="SVGID_21_" gradientUnits="userSpaceOnUse" x1="-334.1191" y1="-293.4103" x2="61.8809" y2="296.9897">
	<stop  offset="0" style="stop-color:#00AEFF"/>
	<stop  offset="0.1858" style="stop-color:#02ABFD"/>
	<stop  offset="0.3385" style="stop-color:#09A1F8"/>
	<stop  offset="0.4795" style="stop-color:#148FEE"/>
	<stop  offset="0.6133" style="stop-color:#2477E1"/>
	<stop  offset="0.7422" style="stop-color:#3958D0"/>
	<stop  offset="0.8674" style="stop-color:#5232BA"/>
	<stop  offset="0.9874" style="stop-color:#7005A2"/>
	<stop  offset="1" style="stop-color:#73009F"/>
</linearGradient>
<path class="st20" d="M108.5,378.5l-10.6-10.6c3.4-3.4,5.3-7.9,5.3-12.8c0-2.5-0.5-4.8-1.4-7.1l13.8-5.9c1.7,4.1,2.6,8.5,2.6,12.9
	C118.2,363.9,114.7,372.2,108.5,378.5z M72.3,342.3l-10.6-10.6c4.6-4.6,10.5-7.8,16.9-9l2.9,14.7C78,338,74.8,339.7,72.3,342.3z
	 M97.8,342.2c-2.5-2.5-5.7-4.2-9.2-4.9l2.8-14.7c6.4,1.2,12.3,4.3,16.9,8.9L97.8,342.2z"/>
<image style="display:none;overflow:visible;" width="2293" height="2751" xlink:href="C:\Users\EDITOR\Desktop\color.PNG"  transform="matrix(0.287 0 0 0.2167 -522.0125 -167.05)">
</image>
</svg>
